<?xml version="1.0" standalone="no"?>
<!DOCTYPE svg PUBLIC "-//W3C//DTD SVG 20010904//EN"
 "http://www.w3.org/TR/2001/REC-SVG-20010904/DTD/svg10.dtd">
<svg version="1.0" xmlns="http://www.w3.org/2000/svg"
 width="700.000000pt" height="700.000000pt" viewBox="0 0 700.000000 700.000000"
 preserveAspectRatio="xMidYMid meet">
<metadata>
Created by potrace 1.14, written by Peter Selinger 2001-2017
</metadata>
<g transform="translate(0.000000,700.000000) scale(0.100000,-0.100000)"
fill="#000000" stroke="none">
<path d="M1970 6406 c-62 -16 -113 -49 -154 -99 -52 -66 -59 -95 -65 -292 l-6
-180 -85 -2 c-111 -2 -298 -11 -330 -16 -14 -3 -43 -8 -65 -12 -22 -4 -47 -9
-55 -10 -39 -7 -142 -52 -205 -89 -82 -48 -225 -186 -280 -270 -79 -122 -120
-255 -133 -436 -4 -52 -7 -880 -6 -1840 0 -1307 3 -1763 12 -1815 21 -121 22
-129 39 -180 60 -188 211 -366 400 -471 68 -38 164 -73 223 -81 19 -2 42 -7
50 -10 8 -3 49 -8 90 -11 103 -9 4084 -9 4190 0 156 13 268 43 380 104 184
101 338 288 398 484 46 151 46 161 46 2015 0 963 -3 1782 -6 1820 -9 100 -36
220 -64 288 -60 149 -208 319 -353 405 -151 90 -302 121 -598 124 l-141 1 -4
186 c-3 154 -6 192 -21 222 -104 211 -384 234 -510 42 -44 -66 -50 -103 -51
-299 l0 -150 -1166 -1 -1166 0 1 146 c0 162 -8 228 -35 281 -58 114 -205 179
-330 146z m3632 -1170 c71 -13 106 -32 151 -78 61 -63 76 -133 80 -386 2 -96
1 -102 -18 -103 -124 -5 -4637 0 -4642 5 -8 7 -6 215 2 311 12 133 98 233 215
250 25 4 47 8 49 11 2 2 925 3 2050 3 1624 0 2060 -2 2113 -13z m228 -1163 c5
-12 5 -2292 0 -2520 -4 -193 -18 -235 -98 -311 -50 -46 -84 -59 -183 -68 -85
-9 -4016 -9 -4098 0 -85 8 -110 15 -151 41 -99 63 -126 132 -130 338 -2 101
-3 2498 -1 2522 1 16 4654 14 4661 -2z"/>
<path d="M1657 3776 c-90 -33 -164 -111 -188 -200 -16 -57 -6 -153 20 -205 39
-76 114 -136 195 -155 15 -4 177 -7 359 -7 376 0 404 5 482 73 113 99 132 272
42 390 -40 52 -99 93 -154 107 -65 17 -708 14 -756 -3z"/>
<path d="M3100 3769 c-61 -27 -106 -64 -134 -107 -93 -148 -46 -334 105 -417
l54 -30 375 0 c367 0 376 0 416 22 129 69 188 190 157 326 -22 100 -75 163
-176 207 -44 19 -64 20 -399 20 -331 -1 -356 -2 -398 -21z"/>
<path d="M4595 3784 c-58 -14 -142 -75 -174 -128 -103 -167 -17 -386 172 -437
49 -13 687 -13 736 1 90 24 176 109 201 200 37 133 -25 275 -150 341 -45 24
-47 24 -405 26 -198 0 -369 -1 -380 -3z"/>
<path d="M1675 2905 c-64 -19 -100 -41 -142 -89 -55 -62 -72 -112 -70 -199 4
-116 67 -212 171 -259 50 -22 60 -22 391 -24 397 -2 428 3 505 78 158 155 106
411 -100 488 -48 18 -697 23 -755 5z"/>
<path d="M3103 2894 c-177 -72 -240 -284 -131 -435 40 -55 50 -64 118 -97 l55
-27 345 -1 c279 -1 354 2 390 14 142 46 225 187 196 332 -20 97 -73 164 -166
208 l-55 27 -348 1 c-340 0 -349 0 -404 -22z"/>
<path d="M4585 2902 c-240 -70 -283 -391 -69 -524 67 -42 109 -46 464 -44 328
2 336 2 388 25 134 60 204 223 156 364 -22 64 -91 139 -156 168 -52 23 -60 23
-393 24 -270 2 -351 -1 -390 -13z"/>
<path d="M1696 2034 c-94 -19 -164 -72 -207 -156 -26 -51 -35 -147 -20 -203
26 -97 109 -180 206 -206 25 -7 163 -11 367 -11 373 0 404 5 483 74 173 152
107 438 -116 498 -57 16 -641 19 -713 4z"/>
<path d="M3170 2037 c-184 -26 -295 -208 -236 -387 26 -78 115 -158 201 -181
57 -16 676 -15 735 1 145 39 238 197 206 348 -22 103 -122 197 -230 217 -52
10 -611 12 -676 2z"/>
<path d="M4635 2038 c-126 -16 -218 -96 -249 -216 -13 -50 -14 -74 -2 -137 20
-105 112 -195 226 -220 44 -10 657 -9 702 0 86 19 164 83 203 166 32 69 31
182 -3 245 -45 88 -122 146 -211 160 -53 9 -603 11 -666 2z"/>
</g>
</svg>
